<?xml version="1.0" encoding="utf-8"?>
<!--
  Licensed to the Apache Software Foundation (ASF) under one or more
  contributor license agreements.  See the NOTICE file distributed with
  this work for additional information regarding copyright ownership.
  The ASF licenses this file to you under the Apache License, Version 2.0
  (the "License"); you may not use this file except in compliance with
  the License.  You may obtain a copy of the License at

      http://www.apache.org/licenses/LICENSE-2.0

  Unless required by applicable law or agreed to in writing, software
  distributed under the License is distributed on an "AS IS" BASIS,
  WITHOUT WARRANTIES OR CONDITIONS OF ANY KIND, either express or implied.
  See the License for the specific language governing permissions and
  limitations under the License.
-->
<!-- Generator: Adobe Illustrator 12.0.0, SVG Export Plug-In . SVG Version: 6.00 Build 51448)  -->
<!DOCTYPE svg PUBLIC "-//W3C//DTD SVG 1.1//EN" "http://www.w3.org/Graphics/SVG/1.1/DTD/svg11.dtd" [
	<!ENTITY ns_svg "http://www.w3.org/2000/svg">
	<!ENTITY ns_xlink "http://www.w3.org/1999/xlink">
]>
<svg  version="1.1" xmlns="&ns_svg;" xmlns:xlink="&ns_xlink;" width="502.811" height="123.223" viewBox="0 0 502.811 123.223"
	 overflow="visible" enable-background="new 0 0 502.811 123.223" xml:space="preserve">
<g id="Layer_2">
</g>
<g id="Layer_1">
	<g>
		<path fill="#FFFFFF" d="M422.333,55.188c0,0-57.656,18.365-69.068,18.561c0,0-0.272,5.211,3.002,16.316
			c3.71,1.32,45.955-9.455,50.653-11.922c18.847-9.895,12.657-14.899,58.366-30.797c0,0-0.865-3.968-4.335-9.584
			C460.951,37.763,444.11,49.218,422.333,55.188z"/>
		<linearGradient id="XMLID_4_" gradientUnits="userSpaceOnUse" x1="326.1489" y1="99.2178" x2="409.394" y2="99.2178">
			<stop  offset="0" style="stop-color:#575757"/>
			<stop  offset="1" style="stop-color:#000000"/>
		</linearGradient>
		<path fill="url(#XMLID_4_)" d="M356.822,89.902c-1.488-1.975-3.62-14.323-3.62-14.323s-30.228,13.139-26.778,35.059
			c1.617,10.298,10.39,11.698,14.139,12.125c8.119,0.926,19.914-5.284,26.633-9.966c13.519-9.419,20.799-18.508,42.199-35.986
			C409.394,76.811,379.102,88.361,356.822,89.902z"/>
		<linearGradient id="XMLID_5_" gradientUnits="userSpaceOnUse" x1="350.9038" y1="36.8745" x2="460.9507" y2="36.8745">
			<stop  offset="0" style="stop-color:#666666"/>
			<stop  offset="1" style="stop-color:#000000"/>
		</linearGradient>
		<path fill="url(#XMLID_5_)" d="M353.264,73.75c0,0-11.72-43.32,17.066-59.808c9.613-5.505,28.292-11.514,37.585-12.747
			c9.294-1.232,31.186-5.128,42.44,13.437c4.114,6.783,9.466,18.786,10.595,23.131C449.192,50.586,366.3,72.923,353.264,73.75z"/>
		<linearGradient id="XMLID_6_" gradientUnits="userSpaceOnUse" x1="427.3989" y1="54.2637" x2="502.4292" y2="54.2637">
			<stop  offset="0" style="stop-color:#616161"/>
			<stop  offset="1" style="stop-color:#000000"/>
		</linearGradient>
		<path fill="url(#XMLID_6_)" d="M427.399,66.57c0,0,19.601-3.876,45.232-4.892c20.483-0.81,32.261-9.313,29.362-13.689
			C499.092,43.614,476.843,30.258,427.399,66.57z"/>
		<path d="M502.653,47.494c0,0-30.744-34.994-127.965,57.962c-21.76,17.283-42.291,20.321-47.529,7.681
			c4.16,12.052,16.037,11.844,30.716,6.936c19.213-6.426,45.868-31.832,49.225-34.336c26.3-19.629,71.279-51.303,95.205-35.324
			C502.304,50.413,503.154,48.854,502.653,47.494z"/>
	</g>
	<text transform="matrix(1 0 0 1 1.4321 70.4546)"><tspan x="0" y="0" font-family="'Myriad-Italic'" font-size="55.1086">Apache </tspan><tspan x="176.84" y="0" font-family="'Myriad-BoldItalic'" font-size="55.1086">Derby</tspan></text>
</g>
</svg>
